<?xml version="1.0" encoding="UTF-8" standalone="no"?>
<!-- Created with Inkscape (http://www.inkscape.org/) -->

<svg
   width="92"
   height="50"
   viewBox="0 0 24.341666 13.229167"
   version="1.1"
   id="svg5"
   inkscape:version="1.2.2 (732a01da63, 2022-12-09)"
   sodipodi:docname="leaf.svg"
   inkscape:export-filename="leaf.png"
   inkscape:export-xdpi="96"
   inkscape:export-ydpi="96"
   xmlns:inkscape="http://www.inkscape.org/namespaces/inkscape"
   xmlns:sodipodi="http://sodipodi.sourceforge.net/DTD/sodipodi-0.dtd"
   xmlns:xlink="http://www.w3.org/1999/xlink"
   xmlns="http://www.w3.org/2000/svg"
   xmlns:svg="http://www.w3.org/2000/svg">
  <sodipodi:namedview
     id="namedview7"
     pagecolor="#505050"
     bordercolor="#ffffff"
     borderopacity="1"
     inkscape:showpageshadow="0"
     inkscape:pageopacity="0"
     inkscape:pagecheckerboard="1"
     inkscape:deskcolor="#505050"
     inkscape:document-units="px"
     showgrid="false"
     inkscape:zoom="9.5144352"
     inkscape:cx="39.624002"
     inkscape:cy="31.95145"
     inkscape:window-width="2256"
     inkscape:window-height="1410"
     inkscape:window-x="-11"
     inkscape:window-y="-11"
     inkscape:window-maximized="1"
     inkscape:current-layer="g453" />
  <defs
     id="defs2">
    <clipPath
       clipPathUnits="userSpaceOnUse"
       id="clipPath455">
      <use
         x="0"
         y="0"
         xlink:href="#g451"
         id="use457" />
    </clipPath>
  </defs>
  <g
     inkscape:label="Layer 1"
     inkscape:groupmode="layer"
     id="layer1">
    <g
       id="g453"
       clip-path="url(#clipPath455)">
      <g
         inkscape:label="Clip"
         id="g451">
        <path
           style="fill:#007e00;fill-opacity:1;stroke-width:10;paint-order:markers fill stroke"
           d="M 10.28919,0.52836381 C 8.4940913,0.40463816 6.3733946,0.1081677 4.9317105,1.4424559 4.2028122,2.2672564 3.9359502,3.3709567 3.4231396,4.3265934 2.3314741,6.9505491 2.0843601,9.8393153 2.1774059,12.654787 5.7963068,12.368043 9.3424928,11.542151 12.920398,10.968326 15.227023,10.501664 17.719045,9.5811755 18.967626,7.4451846 19.804062,6.486417 20.678723,5.2984842 20.351714,3.9457501 20.103673,2.4777047 18.910292,1.394338 17.575982,0.865721 16.478554,0.20861654 15.168552,0.04396258 13.925522,0.32372024 12.688047,0.53383959 11.612531,0.61858141 10.344767,0.44493794"
           id="path292"
           inkscape:label="leaf base"
           sodipodi:nodetypes="cccccccccc" />
      </g>
      <path
         style="fill:#00b616;fill-opacity:1;stroke-width:10;paint-order:markers fill stroke"
         d="M 12.569497,0.58398105 C 11.444764,0.92834636 10.487274,1.6251051 9.659402,2.4415656 8.0779987,3.8627671 6.5498861,5.4302221 5.6341008,7.3751538 5.1909017,8.4643657 4.4686887,9.4124835 3.7590955,10.340682 c -0.229241,0.90293 -1.3999,1.760098 -1.344204,2.51632 1.0370748,0.228699 2.0976709,0.366695 3.1535886,0.491345 2.5745404,0.239998 5.2497309,0.177534 7.7073239,-0.694324 0.993989,-0.463415 2.013092,-0.880063 3.001324,-1.347904 1.623344,-0.918273 3.061022,-2.1709699 4.14415,-3.6899494 0.92993,-0.8859152 1.926928,-2.1204032 1.524356,-3.4936909 -0.304538,-1.2711032 -0.727213,-2.6096865 -1.741252,-3.49895989 -0.721154,-0.79122326 -1.713126,-1.29131602 -2.77822,-1.39840146 -1.100984,-0.17281803 -2.218329,-0.0968429 -3.327191,-0.0871846 -0.229384,0.0439114 -0.402274,0.23175881 -0.639598,0.2502776"
         id="path524" />
      <path
         style="fill:#007e00;fill-opacity:1;stroke-width:10;paint-order:markers fill stroke"
         d="m 11.067832,1.5572828 c 0.436493,1.1313152 0.696301,2.3777894 1.506776,3.3194003 0.47348,0.6122282 0.840677,1.4028348 1.617782,1.6945341 0.250028,0.1950844 1.07372,0.7487594 0.405838,0.1896147 C 13.854783,6.3283007 13.209492,5.7741511 12.668679,5.1057347 12.09357,4.5209928 11.578311,3.883498 11.15391,3.1823396 10.632859,2.8830757 10.357473,2.014866 10.041857,1.4108455 c -9.67e-4,-0.025344 -0.0019,-0.050688 -0.0029,-0.076032"
         id="path2723" />
      <path
         style="fill:#007e00;fill-opacity:1;stroke-width:10;paint-order:markers fill stroke"
         d="M 7.3414762,3.8653984 C 7.015894,4.9664658 7.2227223,6.1436188 7.6184371,7.1946851 7.692347,7.7300423 8.1798906,8.0148574 8.4858933,8.4022652 8.6275326,8.5681884 8.944832,9.0620032 8.8434344,9.0850223 8.2606539,8.3421896 7.366681,7.8195784 7.0743702,6.8733877 6.8706987,6.3992077 6.5931305,5.9526303 6.5378044,5.4275728 6.4701858,4.9565547 6.3608389,4.4936616 6.2569446,4.0322502"
         id="path2725" />
      <path
         style="fill:#007e00;fill-opacity:1;stroke-width:10;paint-order:markers fill stroke"
         d="M 5.5617244,7.3414762 C 5.4962159,8.0126328 5.2696014,8.6529622 5.1508721,9.3143736 5.211291,9.5974227 5.045039,9.8714365 5.0676266,10.158659 4.9965204,10.698581 4.9588128,11.241035 4.9782318,11.785722 4.9788423,12.030598 4.9014392,11.466436 4.8789303,11.348911 4.8046504,10.553587 4.7272767,9.751631 4.799863,8.9530593 4.9349691,8.6502134 4.8871361,8.2925266 5.0693713,8.0057814 5.1315786,7.7333061 5.2945025,7.5106347 5.3520484,7.2397385 l 0.015015,-0.037301"
         id="path2731" />
    </g>
  </g>
</svg>
