<?xml version="1.0" encoding="UTF-8" standalone="no"?>
<!-- Created with Inkscape (http://www.inkscape.org/) -->

<svg
   width="300"
   height="200"
   viewBox="0 0 79.374998 52.916665"
   version="1.1"
   id="svg5"
   inkscape:version="1.2.2 (732a01da63, 2022-12-09)"
   sodipodi:docname="window.svg"
   inkscape:export-filename="tiles\window.png"
   inkscape:export-xdpi="96"
   inkscape:export-ydpi="96"
   xmlns:inkscape="http://www.inkscape.org/namespaces/inkscape"
   xmlns:sodipodi="http://sodipodi.sourceforge.net/DTD/sodipodi-0.dtd"
   xmlns="http://www.w3.org/2000/svg"
   xmlns:svg="http://www.w3.org/2000/svg">
  <sodipodi:namedview
     id="namedview7"
     pagecolor="#505050"
     bordercolor="#ffffff"
     borderopacity="1"
     inkscape:showpageshadow="0"
     inkscape:pageopacity="0"
     inkscape:pagecheckerboard="1"
     inkscape:deskcolor="#505050"
     inkscape:document-units="px"
     showgrid="false"
     inkscape:zoom="2.3786088"
     inkscape:cx="43.302623"
     inkscape:cy="129.90787"
     inkscape:window-width="2256"
     inkscape:window-height="1410"
     inkscape:window-x="-11"
     inkscape:window-y="-11"
     inkscape:window-maximized="1"
     inkscape:current-layer="layer3" />
  <defs
     id="defs2">
    <linearGradient
       id="linearGradient3409"
       inkscape:swatch="solid">
      <stop
         style="stop-color:#46c3e8;stop-opacity:1;"
         offset="0"
         id="stop3407" />
    </linearGradient>
  </defs>
  <g
     inkscape:label="Layer 1"
     inkscape:groupmode="layer"
     id="layer1">
    <rect
       style="display:inline;fill:#5ac3ff;fill-opacity:1;stroke:#7f412e;stroke-width:0.198;paint-order:markers fill stroke"
       id="rect5878"
       width="87.38533"
       height="60.564087"
       x="-3.2248409"
       y="-2.2809851"
       ry="0.72689551"
       inkscape:label="bg" />
  </g>
  <g
     inkscape:groupmode="layer"
     id="layer3"
     inkscape:label="outside"
     style="fill:#ffffff">
    <rect
       style="fill:#ffffff;fill-opacity:1;stroke:none;stroke-width:1;stroke-dasharray:none;stroke-opacity:1;paint-order:markers fill stroke"
       id="rect12154"
       width="31.145658"
       height="3.4482691"
       x="7.7864141"
       y="13.236904"
       ry="1.6167712"
       rx="3.0589483" />
    <rect
       style="fill:#ffffff;fill-opacity:1;stroke:none;stroke-width:1;stroke-dasharray:none;stroke-opacity:1;paint-order:markers fill stroke"
       id="rect12210"
       width="25.956038"
       height="3.3034956"
       x="51.754765"
       y="22.652542"
       rx="3.0589483"
       ry="1.6167712" />
    <ellipse
       style="fill:#ffffff;fill-opacity:1;stroke:none;stroke-width:1;stroke-dasharray:none;stroke-opacity:1;paint-order:markers fill stroke"
       id="path12264"
       cx="13.567928"
       cy="10.067796"
       rx="5.938427"
       ry="4.4833155" />
    <ellipse
       style="fill:#ffffff;fill-opacity:1;stroke:none;stroke-width:1;stroke-dasharray:none;stroke-opacity:1;paint-order:markers fill stroke"
       id="path12270"
       cx="30.557333"
       cy="12.309454"
       rx="3.106859"
       ry="3.1855137" />
    <ellipse
       style="fill:#ffffff;fill-opacity:1;stroke:none;stroke-width:1;stroke-dasharray:none;stroke-opacity:1;paint-order:markers fill stroke"
       id="path12272"
       cx="22.455906"
       cy="9.5565414"
       rx="7.4328656"
       ry="4.8372617" />
    <ellipse
       style="fill:#ffffff;fill-opacity:1;stroke:none;stroke-width:1.17403;stroke-dasharray:none;stroke-opacity:1;paint-order:markers fill stroke"
       id="path12274"
       cx="61.940544"
       cy="21.433395"
       rx="3.9720602"
       ry="3.4214776" />
    <ellipse
       style="fill:#ffffff;fill-opacity:1;stroke:none;stroke-width:1;stroke-dasharray:none;stroke-opacity:1;paint-order:markers fill stroke"
       id="path12278"
       cx="59.226959"
       cy="22.849178"
       rx="3.3034956"
       ry="1.6910751" />
    <ellipse
       style="fill:#ffffff;fill-opacity:1;stroke:none;stroke-width:1;stroke-dasharray:none;stroke-opacity:1;paint-order:markers fill stroke"
       id="path12282"
       cx="67.210411"
       cy="19.624336"
       rx="4.7586069"
       ry="3.8934057" />
    <ellipse
       style="fill:#6bea6b;stroke-width:1;paint-order:markers fill stroke;fill-opacity:1"
       id="path856"
       cx="14.197166"
       cy="29.102224"
       rx="8.1407576"
       ry="8.1014299" />
    <ellipse
       style="fill:#6bea6b;fill-opacity:1;stroke-width:1;paint-order:markers fill stroke"
       id="path2834"
       cx="23.753708"
       cy="35.984509"
       rx="7.9441209"
       ry="7.6688294" />
    <ellipse
       style="fill:#6bea6b;fill-opacity:1;stroke-width:1;paint-order:markers fill stroke"
       id="path2836"
       cx="13.292638"
       cy="39.170021"
       rx="3.7754238"
       ry="6.4496818" />
    <ellipse
       style="fill:#6bea6b;fill-opacity:1;stroke-width:1;paint-order:markers fill stroke"
       id="path2838"
       cx="16.674788"
       cy="43.61401"
       rx="6.3710275"
       ry="3.7360964" />
    <ellipse
       style="fill:#6bea6b;fill-opacity:1;stroke-width:1;paint-order:markers fill stroke"
       id="path2840"
       cx="62.805748"
       cy="45.50172"
       rx="8.3767214"
       ry="4.7586069" />
    <ellipse
       style="fill:#6bea6b;fill-opacity:1;stroke-width:1;paint-order:markers fill stroke"
       id="path2842"
       cx="57.653866"
       cy="35.709217"
       rx="5.8204446"
       ry="4.7979341" />
    <ellipse
       style="fill:#6bea6b;fill-opacity:1;stroke-width:1;paint-order:markers fill stroke"
       id="path2844"
       cx="49.90638"
       cy="40.546478"
       rx="3.0282044"
       ry="2.7922401" />
    <ellipse
       style="fill:#6bea6b;fill-opacity:1;stroke-width:1;paint-order:markers fill stroke"
       id="path2846"
       cx="58.833687"
       cy="38.619438"
       rx="4.3260064"
       ry="3.1461864" />
    <ellipse
       style="fill:#6bea6b;fill-opacity:1;stroke-width:1;paint-order:markers fill stroke"
       id="path2848"
       cx="58.243774"
       cy="38.973385"
       rx="5.4664989"
       ry="4.3653336" />
    <ellipse
       style="fill:#6bea6b;fill-opacity:1;stroke-width:1;paint-order:markers fill stroke"
       id="path2850"
       cx="65.597984"
       cy="34.33276"
       rx="5.8204446"
       ry="5.8597722" />
    <circle
       style="fill:#6bea6b;fill-opacity:1;stroke-width:1;paint-order:markers fill stroke"
       id="path2852"
       cx="54.153736"
       cy="40.074547"
       r="4.5226431" />
    <ellipse
       style="fill:#6bea6b;fill-opacity:1;stroke-width:1;paint-order:markers fill stroke"
       id="path2854"
       cx="24.068327"
       cy="43.653339"
       rx="3.6967692"
       ry="2.1236758" />
    <ellipse
       style="fill:#6bea6b;fill-opacity:1;stroke-width:1;paint-order:markers fill stroke"
       id="path2858"
       cx="29.298862"
       cy="39.995895"
       rx="2.3203125"
       ry="2.1630032" />
    <ellipse
       style="fill:#6bea6b;fill-opacity:1;stroke-width:1;paint-order:markers fill stroke"
       id="path2860"
       cx="23.635725"
       cy="28.27635"
       rx="4.6799526"
       ry="2.7135856" />
    <ellipse
       style="fill:#6bea6b;fill-opacity:1;stroke-width:1;paint-order:markers fill stroke"
       id="path2862"
       cx="18.680481"
       cy="25.090837"
       rx="3.1855137"
       ry="1.8877119" />
    <ellipse
       style="fill:#ffccaa;fill-opacity:1;stroke-width:1;paint-order:markers fill stroke"
       id="path3076"
       cx="24.264963"
       cy="16.20286"
       rx="11.208289"
       ry="0.47192797" />
    <ellipse
       style="fill:#ffccaa;fill-opacity:1;stroke-width:1;paint-order:markers fill stroke"
       id="path3130"
       cx="60.682072"
       cy="25.798727"
       rx="6.5676641"
       ry="0.47192797" />
    <ellipse
       style="fill:#ffccaa;fill-opacity:1;stroke-width:1;paint-order:markers fill stroke"
       id="path3132"
       cx="63.828259"
       cy="25.130163"
       rx="4.3653336"
       ry="0.82587391" />
    <ellipse
       style="fill:#ffccaa;fill-opacity:1;stroke-width:1;paint-order:markers fill stroke"
       id="path3134"
       cx="17.264698"
       cy="15.337659"
       rx="4.3653336"
       ry="0.78654659" />
    <ellipse
       style="fill:#ffccaa;fill-opacity:1;stroke-width:1;paint-order:markers fill stroke"
       id="path3136"
       cx="31.619173"
       cy="16.556807"
       rx="7.0002651"
       ry="0.90452862" />
    <path
       style="fill:#a05a2c;fill-opacity:1;stroke-width:1;paint-order:markers fill stroke"
       d="m 15.180349,46.327594 c -0.982685,1.179325 -1.6655,2.579841 -2.20233,4.01139 -0.06702,0.178718 -0.133635,0.361183 -0.157309,0.550582 -0.06504,0.520314 0,1.048729 0,1.573094 0,0.317227 -0.07812,0.788675 0,1.101164 0.04564,0.182575 0.391252,0.467886 0.471928,0.629237 0.01173,0.02344 -0.05244,0 -0.07865,0 -0.07866,0 -0.162935,0.02921 -0.235964,0 -0.199322,0.05302 -0.195593,-0.181028 -0.314619,-0.235963 -1.643918,-0.758733 -0.503966,0.06128 -2.35964,-1.730404 -0.06527,-0.06302 -1.4998656,-1.471497 -1.5730927,-1.651747 -0.354902,-0.873606 -0.384139,-2.635694 -0.3146187,-3.53946 0.032734,-0.425546 0.1680035,-0.837118 0.2359641,-1.258475 0.063176,-0.391692 0.056338,-0.796129 0.1573094,-1.17982 0.033362,-0.126775 0.1632476,-0.205544 0.2359639,-0.314618 0.03252,-0.04878 0.026217,-0.131091 0.078655,-0.157308 0.1195734,-0.05979 0.2664462,-0.03638 0.3932732,-0.07866 0.1112345,-0.03708 0.2033841,-0.120232 0.3146187,-0.15731 1.7779741,-0.592656 3.6343701,-0.951243 5.3485161,-1.730402 0.754531,-0.342968 0.33931,-0.226205 0.943857,-0.629237 0.691435,-0.460957 1.409639,-0.908709 2.123675,-1.33713 0.674833,-0.4049 1.379636,-0.759577 2.045021,-1.17982 0.350495,-0.221363 0.677588,-0.477943 1.022511,-0.707892 0.167899,-0.111932 0.435421,-0.394401 0.629237,-0.471927 0.285802,-0.114321 0.555748,-0.142954 0.314619,0.235963 -0.637188,1.001298 -0.971299,0.971299 -2.045021,2.045023 -0.780657,0.780656 -1.44473,1.708841 -2.202331,2.516947 -0.6179,0.659096 -1.293687,1.287484 -1.887711,1.966367 -0.124499,0.142285 -0.20751,0.316133 -0.314619,0.47193 -0.663608,0.965247 -1.372085,1.896446 -1.809057,2.988876"
       id="path3205" />
    <path
       style="fill:#a05a2c;fill-opacity:1;stroke-width:1;paint-order:markers fill stroke"
       d="m 20.686176,43.967955 c -2.137488,1.247585 -4.435145,2.203148 -6.606992,3.38215 -2.275012,1.564071 -0.217137,0.26588 -2.516949,1.415786 -0.273475,0.136736 -0.543668,0.286197 -0.786547,0.471926 -0.183527,0.183529 -0.367055,0.367057 -0.550582,0.550582 -0.05244,0 -0.110409,-0.02344 -0.157309,0 -0.084552,0.04228 -0.1691208,0.224155 -0.2359643,0.157311 -0.212874,-0.212873 0.4557183,-0.753713 0.7865463,-1.022511 6.242895,-5.072351 1.970926,-1.779757 8.25874,-5.348518 0.638852,-0.36259 1.170495,-0.895371 1.809057,-1.258475 2.368247,-1.346649 1.52346,-0.7972 3.460805,-1.258474 0.459802,-0.109477 0.884407,-0.336111 1.337129,-0.471927 0.207083,-0.06212 0.424131,-0.08894 0.629237,-0.157308 0.721655,-0.240554 1.526708,-0.761003 2.123677,-1.258475 0.08545,-0.07121 0.146976,-0.169225 0.235963,-0.235966 0.09648,-0.07236 1.33713,-0.761132 1.33713,-0.629237 0,0.03708 -0.06207,0.04549 -0.07866,0.07865 -0.01172,0.02344 0,0.05244 0,0.07865 -0.02622,0.05244 -0.04348,0.110408 -0.07866,0.157308 -0.816975,1.089303 -2.087806,1.672133 -3.22484,2.359642 -0.471928,0.288398 -0.943856,0.576799 -1.415784,0.865201 -0.367055,0.262181 -0.718654,0.547475 -1.101165,0.786545 -1.024831,0.640519 -0.476458,0.170214 -1.337129,0.629237 -0.218243,0.116399 -0.397644,0.306428 -0.629238,0.393274 -0.40487,0.151826 -0.871722,0.121243 -1.258474,0.314619 -0.26531,0.132654 -0.38243,0.464698 -0.629237,0.629237 -0.158815,0.105876 -0.375144,0.08212 -0.550583,0.157311 -0.105036,0.04501 -1.271911,0.694455 -1.494439,0.471927 -0.03708,-0.03708 0,-0.104873 0,-0.157308 0,-0.06302 -0.05022,-0.421709 0,-0.47193 0.126683,-0.126682 0.330526,-0.115477 0.393274,-0.157308 0.193706,-0.129137 0.499836,-0.378049 0.629237,-0.550584 1.170325,-1.560433 -0.203596,0.148084 0.629237,-1.101164 0.02862,-0.04293 0.466165,-0.399037 0.314619,-0.550582 -0.03708,-0.03708 -0.105586,0.0086 -0.15731,0 -0.131868,-0.02199 -0.260403,-0.06389 -0.393273,-0.07866 -0.816906,-0.09077 -1.619297,-0.07865 -2.438294,-0.07865 -0.123495,0 -0.770171,-0.08684 -0.943856,0 -0.07035,0.03518 -0.03518,0.165613 0,0.235963 0.02345,0.0469 0.108623,-0.01947 0.157309,0 0.858724,0.34349 -0.505549,-0.0013 1.17982,0.314619 0.131091,0.02622 0.262182,0.05244 0.393273,0.07865 0.07865,0.05244 0.144256,0.134382 0.235964,0.157311 0.279735,0.06993 0.590044,-0.01307 0.865202,0.07865 0.02487,0.0083 -0.01854,0.06012 0,0.07865 0.107543,0.107545 0.557909,0.135977 0.707892,0.235963 0.157309,0.104873 -0.183528,0.07866 0.07865,0.07866"
       id="path3335" />
    <path
       style="fill:#a05a2c;fill-opacity:1;stroke-width:1;paint-order:markers fill stroke"
       d="m 66.46319,48.687235 c -0.917639,-0.445709 -1.8815,-0.806704 -2.752916,-1.33713 -0.348393,-0.212066 -0.556985,-0.59808 -0.865201,-0.8652 -0.08861,-0.07679 -0.217058,-0.09227 -0.314618,-0.157311 -0.218149,-0.145431 -0.404419,-0.337034 -0.629238,-0.471927 -0.461557,-0.276934 -0.994068,-0.305138 -1.494438,-0.471927 -0.383915,-0.127973 -0.786791,-0.302574 -1.179819,-0.393274 -0.205965,-0.04753 -0.425307,-0.02304 -0.629237,-0.07865 -0.653754,-0.178297 -1.174121,-0.470503 -1.809057,-0.629237 -0.07631,-0.01908 0.157308,0 0.235963,0 0.327049,0 -0.0039,-0.03708 0.393274,0.235963 1.130202,0.777015 1.432433,0.794872 2.831568,1.494441 1.476193,0.738095 2.702372,1.86985 4.090041,2.752913 1.14478,0.728495 1.979429,1.12977 3.146186,2.123675 0.184007,0.156747 0.301006,0.379661 0.47193,0.550582 0.249417,0.249418 0.519991,0.476877 0.786545,0.707893 0.126865,0.109947 0.274566,0.195911 0.393274,0.314619 0.01855,0.01855 -0.02344,0.06693 0,0.07865 0.0469,0.02344 0.110408,-0.02344 0.157308,0 0.02344,0.01172 0.01032,0.102754 0,0.07866 -0.473175,-1.10408 -0.438129,-1.704819 -0.865201,-3.146187 -0.17436,-0.588465 -0.428834,-1.15029 -0.629237,-1.730402 -0.297786,-0.862015 -0.5768,-1.730401 -0.865201,-2.595605 -0.429387,-1.288161 -0.05542,-0.195368 -0.707892,-1.966364 -0.02866,-0.0778 -0.03267,-0.166982 -0.07865,-0.235966 -0.03252,-0.04878 -0.09983,0.06716 -0.157311,0.07865 -0.102835,0.02056 -0.212431,-0.02357 -0.314618,0 -0.403932,0.09322 -0.786546,0.262184 -1.17982,0.393274 -2.316258,0.772086 0.585274,-0.264075 -1.179819,0.550582 -0.365924,0.168889 -0.582787,0.137491 -0.943856,0.235963 -0.319953,0.08726 -0.620713,0.240049 -0.943856,0.314619 -0.109025,0.02516 -1.325129,0.07265 -1.33713,0.07865 -0.120296,0.06015 0.243681,0.268074 0.8652,0.550582 0.680657,0.309391 1.521825,0.748409 2.280986,0.865204 0.507278,0.07804 1.058585,0.157308 1.573094,0.157308 0.257162,0 0.461941,0.03766 0.707893,0.07866 0.213352,0.03556 0.59681,-0.09487 0.786545,0 0.02344,0.01172 -0.02344,0.06693 0,0.07865 0.07035,0.03518 0.180348,-0.05562 0.235963,0 0.104873,0.104873 -0.13109,0.07866 0.07866,0.07866"
       id="path3337" />
    <path
       style="fill:#a05a2c;fill-opacity:1;stroke-width:1;paint-order:markers fill stroke"
       d="m 53.563824,41.293698 c 0.73411,0.157308 1.47107,0.301865 2.20233,0.471926 3.332319,0.77496 -0.60204,-0.11194 2.045021,0.629238 0.88197,0.246951 0.763558,0.235963 1.258474,0.235963 0.209746,0 0.419492,0 0.629238,0 0.05244,0 0.15731,0.05244 0.15731,0 0,-0.461055 -0.689927,-0.675685 -1.022511,-0.786545 -0.874273,-0.291426 -1.758543,-0.641962 -2.674258,-0.786548 -0.853519,-0.134766 -1.732946,-0.07865 -2.595604,-0.07865"
       id="path3339" />
    <path
       style="fill:#a05a2c;fill-opacity:1;stroke-width:1;paint-order:markers fill stroke"
       d="m 15.416313,37.911547 c 3.303496,-0.996293 6.590924,-2.047509 9.910488,-2.988878 0.02578,-0.0073 1.471784,0.028 1.573092,0.07865 0.07801,0.039 -0.07015,0.380513 -0.07865,0.393274 -0.133556,0.200334 -0.422892,0.120462 -0.629236,0.157308 -0.551754,0.09853 -1.098417,0.225372 -1.651748,0.314619 -0.260128,0.04196 -0.529609,0.02027 -0.786547,0.07865 -2.995346,0.68076 0.482079,0.0016 -1.494438,0.550582 -0.742257,0.206182 -1.533292,0.272545 -2.280985,0.471929 -0.272844,0.07276 -0.513703,0.241859 -0.786547,0.314619 -0.283231,0.07553 -0.581565,0.08332 -0.865201,0.157308 -1.573825,0.410565 -0.401626,0.14492 -1.415784,0.550582 -0.490413,0.196167 -0.951205,0.318294 -1.415784,0.550585 -0.03187,0.01593 -0.536496,0.02817 -0.550582,0 -0.09176,-0.183528 0.09832,-0.157311 -0.07865,-0.157311"
       id="path3341" />
    <path
       style="fill:#a05a2c;fill-opacity:1;stroke-width:1;paint-order:markers fill stroke"
       d="m 63.474311,51.361493 c -0.931077,-0.672068 -1.788253,-1.391759 -2.674258,-2.123676 -0.202133,-0.166978 -0.432644,-0.298463 -0.629237,-0.471926 -0.616897,-0.544322 -0.8308,-0.816049 -1.494438,-1.258475 -0.417663,-0.278442 -1.282989,-0.748297 -1.80906,-0.865203 -0.394784,-0.08773 -0.515445,-0.03194 -0.8652,-0.235964 -0.326615,-0.190526 -0.648589,-0.393025 -0.943856,-0.629237 -0.114541,-0.09163 -0.79611,-0.786546 -1.022509,-0.786546 -0.03041,0 0.01146,0.202629 0.07865,0.314619 0.108127,0.180208 0.426579,0.606436 0.550584,0.707893 0.163597,0.13385 0.383731,0.184843 0.550582,0.314616 0.07462,0.05804 0.07756,0.185213 0.157308,0.235966 0.21785,0.138631 0.485326,0.183695 0.707893,0.314619 0.225983,0.132932 0.413673,0.322691 0.629237,0.471926 0.221938,0.153649 0.491946,0.231315 0.707893,0.393274 0.122351,0.09176 0.412935,0.435877 0.550582,0.550582 0.240274,0.200229 0.482383,0.325075 0.707893,0.550582 0.30176,0.30176 0.276153,0.23654 0.629237,0.47193 0.0617,0.04113 0.09372,0.119155 0.157308,0.157308 0.07109,0.04266 0.166979,0.03266 0.235964,0.07865 0.09255,0.0617 0.143412,0.174263 0.235966,0.235963 0.33882,0.22588 0.762344,0.324705 1.101164,0.550585 0.15731,0.104873 0.314618,0.340836 0.471929,0.471927 0.462682,0.385569 0.999675,0.614016 1.494438,0.943856 0.249727,0.166486 0.49399,0.374409 0.786545,0.471927 0.355069,0.118356 0.815391,-0.09111 1.17982,0 0.554461,0.138615 1.148207,0.314618 1.730404,0.314618"
       id="path3351" />
  </g>
  <g
     inkscape:groupmode="layer"
     id="layer2"
     inkscape:label="curtainL"
     transform="translate(-0.02780862,-0.19466035)">
    <rect
       style="fill:#f4f4f4;fill-opacity:1;stroke:#dfa1a8;stroke-width:1;stroke-dasharray:none;stroke-opacity:1;paint-order:markers fill stroke"
       id="rect9154"
       width="16.016445"
       height="55.052086"
       x="-3.1461864"
       y="-2.2809851"
       ry="0.72689551"
       inkscape:label="curtainL" />
    <path
       style="display:none;fill:#f4f4f4;fill-opacity:1;stroke:#be8188;stroke-width:1;stroke-dasharray:none;stroke-opacity:1;paint-order:markers fill stroke"
       id="path11967"
       d="m 8.5220187,52.183783 c -0.00714,-1.449085 -0.015547,-1.993101 0.00811,-3.570628 0.075028,-5.002805 0.2293779,-10.004637 0.3632092,-15.006082 0.078873,-3.011861 0.1373034,-6.02429 0.1811753,-9.036862 0.013608,-0.934362 0.038594,-1.872404 0.00135,-2.806778 0.020902,-0.06197 -0.036178,-0.09998 -0.046219,-0.151971 -0.020926,-0.108347 -0.028163,-0.396473 -0.031764,-0.464858 -0.069609,-1.321799 0.028801,0.629248 -0.047545,-0.900584 -0.020873,-0.430275 -0.036145,-0.860769 -0.049251,-1.291337 -1.162e-4,-0.0054 -0.076475,-0.0038 -0.076359,0.0016 v 0 c 0.00895,0.431277 0.021368,0.862471 0.044633,1.293264 0.027721,0.503561 0.028958,1.022633 0.1288618,1.515113 -9.525e-4,0.934333 -0.031897,1.869214 -0.056857,2.803029 -0.080498,3.011657 -0.1624907,6.023272 -0.236986,9.03509 -0.1064517,3.966734 -0.2150888,7.932819 -0.2708921,11.900672 -0.025673,1.825503 -0.048687,3.448947 -0.027938,5.251249 0.00549,0.477057 0.023193,0.953897 0.034792,1.430846 1.278e-4,0.0058 0.081808,0.004 0.08168,-0.0019 z" />
    <path
       style="fill:#f4f4f4;fill-opacity:1;stroke:#dfa1a8;stroke-width:1;stroke-dasharray:none;stroke-opacity:1;paint-order:markers fill stroke"
       id="path11969"
       d="m 2.5563932,16.293981 c 0.013031,0.466755 0.018555,0.933779 0.039094,1.400264 0.072621,1.649433 0.2020991,3.564887 0.3166041,5.190915 0.1428711,2.028839 0.3113038,4.250498 0.4888106,6.278429 0.089931,1.027427 0.1910454,2.053844 0.2865681,3.080763 0.1142313,1.022938 0.2282218,2.045902 0.3426937,3.068812 0.1085397,0.969902 0.2283904,1.938595 0.3263408,2.909621 0.2929988,2.904633 0.513598,5.820076 0.6355704,8.737081 0.028686,0.686046 0.038829,1.37274 0.058244,2.059109 -0.00575,0.873085 0.017764,1.481299 -0.065719,2.312046 -0.016357,0.162758 -0.044439,0.32453 -0.080425,0.484103 -0.018584,0.08241 -0.045205,0.163867 -0.082766,0.239535 -0.080041,0.16125 -0.063145,0.03627 -0.061935,0.01275 -0.014954,-0.0528 -0.025257,-0.06957 -0.019031,-0.12546 0.00132,-0.01185 0.018653,-0.04372 0.012353,-0.03359 -0.01,0.01606 -0.024209,0.03273 -0.023582,0.05164 9.525e-4,0.029 0.021339,0.05418 0.028032,0.08242 0.010568,0.04458 0.015735,0.09028 0.023601,0.135422 0.028323,0.22089 0.020254,0.443695 0.009,0.66535 -2.212e-4,0.005 0.070509,0.0081 0.07073,0.0031 v 0 c 0.012327,-0.226235 0.020526,-0.453665 -0.010067,-0.679029 -0.00502,-0.02682 -0.030788,-0.212434 -0.065951,-0.246465 -0.1474801,-0.142727 -0.1316117,0.147098 -0.076284,0.19155 0.034106,0.01426 0.066063,0.05 0.1023176,0.04278 0.1001728,-0.01995 0.1731653,-0.32548 0.1738212,-0.328102 0.1092411,-0.436655 0.1468752,-0.93191 0.1660924,-1.370809 0.021,-0.479591 0.01887,-0.959916 0.028307,-1.439873 C 5.1652481,48.328784 5.1626421,47.64092 5.1381141,46.953662 4.9622741,42.026732 4.4142641,37.126014 3.8467189,32.231905 3.7513444,31.2055 3.6499992,30.17961 3.5606004,29.152646 3.4242479,27.586302 3.1816651,24.429198 3.0654331,22.876174 2.9515513,21.354555 2.7972186,19.255563 2.7039176,17.690722 c -0.027744,-0.465323 -0.046069,-0.931161 -0.069103,-1.396741 0,-0.0055 -0.078421,-0.0055 -0.078421,0 z" />
  </g>
  <g
     inkscape:groupmode="layer"
     id="g11990"
     inkscape:label="curtainR"
     transform="translate(67.706669,-0.15335672)">
    <rect
       style="fill:#f4f4f4;fill-opacity:1;stroke:#dfa1a8;stroke-width:1;stroke-dasharray:none;stroke-opacity:1;paint-order:markers fill stroke"
       id="rect11984"
       width="16.016445"
       height="55.052086"
       x="-3.1461864"
       y="-2.2809851"
       ry="0.72689551"
       inkscape:label="curtainL" />
    <path
       style="display:inline;fill:#f4f4f4;fill-opacity:1;stroke:#dfa1a8;stroke-width:1;stroke-dasharray:none;stroke-opacity:1;paint-order:markers fill stroke"
       id="path11986"
       d="m 6.9489255,52.498402 c -0.00714,-1.449085 -0.015547,-1.993101 0.00811,-3.570628 C 7.0320635,43.924969 7.1864134,38.923137 7.3202447,33.921692 7.3991177,30.909831 7.4575481,27.897402 7.50142,24.88483 7.515028,23.950468 7.540014,23.012426 7.50277,22.078052 7.523672,22.016082 7.466592,21.978072 7.456551,21.926081 7.435625,21.817734 7.428388,21.529608 7.424787,21.461223 7.355178,20.139424 7.453588,22.090471 7.377242,20.560639 7.356369,20.130364 7.341097,19.69987 7.327991,19.269302 c -1.162e-4,-0.0054 -0.076475,-0.0038 -0.076359,0.0016 v 0 c 0.00895,0.431277 0.021368,0.862471 0.044633,1.293264 0.027721,0.503561 0.028958,1.022633 0.1288618,1.515113 -9.525e-4,0.934333 -0.031897,1.869214 -0.056857,2.803029 -0.080498,3.011657 -0.1624907,6.023272 -0.236986,9.03509 -0.1064517,3.966734 -0.2150888,7.932819 -0.2708921,11.900672 -0.025673,1.825503 -0.048687,3.448947 -0.027938,5.251249 0.00549,0.477057 0.023193,0.953897 0.034792,1.430846 1.278e-4,0.0058 0.081808,0.004 0.08168,-0.0019 z"
       inkscape:label="path11986" />
  </g>
</svg>
